<?xml version="1.0" encoding="UTF-8" standalone="no"?>
<svg
   xmlns="http://www.w3.org/2000/svg"
   viewBox="0 0 583.04602 157.61602"
   version="1.1"
   height="157.61601mm"
   width="583.04602mm">
  <title id="title2">Logotipo Secretaría de Educación Pública</title>
  <g transform="translate(-182.9347,-1.4078609)">
    <path fill="#9b233e"
       d="m 670.7,1.408 c -1.36,0.07609 -22.84,11.01 -28.02,14.28 -0.983,0.6205 -0.9932,0.7226 -0.3104,3.069 0.4008,1.377 1.248,2.113 2.178,1.891 0.285,-0.06794 6.16,-1.706 13.05,-3.639 17.53,-4.915 15.72,-4.298 16.53,-5.647 0.3704,-0.6208 0.6724,-1.347 0.6714,-1.614 -0.008,-1.233 -3.319,-8.055 -4.049,-8.335 -0.0113,-0.0043 -0.0277,-0.00644 -0.0494,-0.0043 z m -11.1,24.53 c -11.62,-0.07137 -22.42,5.852 -27.94,15.87 -6.392,11.59 -6.15,28.24 0.5545,38.18 6.108,9.054 17.19,13.82 29.01,12.46 15.89,-1.821 26.61,-13.99 27.9,-31.69 1.269,-17.39 -7.411,-30.67 -22.22,-33.99 -2.444,-0.5482 -4.891,-0.8214 -7.304,-0.8362 z m -100.1,0.01696 c -18.65,0.1931 -33.4,13.64 -33.3,34.18 0.0973,21.57 14.12,34.27 35.71,32.32 6.299,-0.57 12.45,-2.403 16.99,-5.065 1.514,-0.8876 1.741,-1.106 2.292,-2.197 l 0.612,-1.212 v -4.099 c 0,-2.254 -0.062,-5.155 -0.1364,-6.447 -0.166,-2.882 0.1274,-2.707 -4.681,-2.779 l -3.554,-0.05263 -0.1651,0.6217 c -0.0906,0.3419 -0.6853,2.813 -1.321,5.491 -1.319,5.553 -1.327,5.567 -3.66,6.386 -3.341,1.173 -9.133,1.627 -12.74,0.9964 -11.06,-1.935 -17.01,-11.34 -16.58,-26.23 0.2246,-7.835 2.309,-14.34 6.222,-19.41 2.524,-3.27 10.69,-5.314 17.34,-4.34 3.295,0.4828 6.506,1.485 6.924,2.161 0.1593,0.2578 1.879,9.497 2.092,11.24 0.196,1.604 0.2881,1.695 1.9,1.874 1.895,0.2106 5.819,0.2194 5.946,0.01339 0.154,-0.2492 2.624,-14.4 2.653,-15.2 0.0584,-1.605 -0.9029,-2.822 -3.003,-3.8 -6.675,-3.109 -13.32,-4.518 -19.54,-4.453 z m -135.7,0.01256 c -19.86,-7.84e-4 -35.38,15.01 -33.72,37.11 1.323,17.7 11.18,27.77 28.83,29.46 1.637,0.1568 4.597,0.1217 6.838,-0.08135 6.331,-0.5736 12.44,-2.399 17.03,-5.087 1.474,-0.8642 1.706,-1.089 2.255,-2.176 l 0.612,-1.212 v -4.099 c 0,-2.254 -0.0619,-5.155 -0.1364,-6.447 -0.1661,-2.882 0.1274,-2.707 -4.681,-2.779 l -3.554,-0.05263 -0.1651,0.6217 c -0.0906,0.3419 -0.6853,2.813 -1.321,5.491 -1.319,5.553 -1.327,5.567 -3.66,6.386 -3.341,1.173 -9.133,1.627 -12.74,0.9964 -7.979,-1.396 -13.41,-6.807 -15.61,-15.57 -2.592,-10.29 -0.4088,-22.81 5.246,-30.07 3.341,-4.29 15.1,-5.957 22.34,-3.165 0.8781,0.3387 1.695,0.7341 1.815,0.8791 0.2435,0.2934 0.9894,3.969 1.889,9.31 0.3349,1.988 0.7066,3.596 0.8519,3.685 0.35,0.2163 4.097,0.4493 5.885,0.3659 l 1.451,-0.06759 0.2538,-1.283 c 0.2388,-1.207 1.863,-10.56 2.289,-13.18 0.1798,-1.106 0.1483,-1.301 -0.3942,-2.448 -0.5827,-1.232 -0.6102,-1.256 -2.508,-2.14 -6.528,-3.041 -13.02,-4.448 -19.1,-4.449 z m 72.39,0.395 -2.121,0.0064 c -3.257,0.0096 -12.75,0.7456 -13.2,1.024 -0.1284,0.07931 -0.875,2.281 -1.659,4.893 -2.418,8.051 -18.57,50.83 -19.58,51.86 -0.1493,0.1521 -1.799,0.7681 -3.666,1.369 -2.884,0.9285 -3.404,1.159 -3.46,1.534 -0.0627,0.4201 0.5251,3.693 0.722,4.02 0.0514,0.08547 5.68,0.1554 12.51,0.1554 11.61,0 12.43,-0.02335 12.6,-0.3626 h 3.8e-4 c 0.2684,-0.5268 0.9522,-3.972 0.8155,-4.108 -0.0637,-0.06375 -2.048,-0.6176 -4.408,-1.231 -2.361,-0.6132 -4.349,-1.172 -4.419,-1.242 -0.0698,-0.06978 0.8968,-3.175 2.148,-6.9 l 2.275,-6.774 2.694,-0.1319 c 1.482,-0.07261 7.016,-0.1659 12.3,-0.2072 l 9.605,-0.07527 1.12,3.212 c 0.6159,1.767 1.739,4.916 2.496,6.998 0.7565,2.082 1.323,3.838 1.259,3.902 -0.0637,0.06375 -1.833,0.5636 -3.932,1.111 -2.099,0.5469 -4.031,1.062 -4.293,1.145 -0.5317,0.1687 -0.5185,1.31 0.0414,3.525 l 0.2619,1.036 13.77,0.05342 c 7.572,0.02929 13.84,-0.01731 13.92,-0.1036 0.3345,-0.3368 1.029,-4.052 0.8001,-4.283 -0.1228,-0.124 -1.781,-0.7383 -3.686,-1.365 -3.342,-1.1 -3.475,-1.165 -3.801,-1.865 -1.893,-4.059 -20.07,-53.01 -20.87,-56.21 z m -262.3,0.3436 c -0.5158,0.0075 -1.192,0.03842 -1.904,0.08907 -4.773,0.3398 -19.25,0.5977 -33.7,0.6006 -11.27,0.0021 -14.35,0.05806 -14.42,0.2618 -0.2356,0.6334 -0.8509,4.088 -0.7467,4.192 0.0636,0.06364 1.209,0.4309 2.545,0.8159 3.824,1.102 5.124,1.841 5.494,3.125 0.6441,2.233 0.5014,47.77 -0.1518,48.42 -0.1093,0.1093 -1.889,0.6892 -3.955,1.289 -2.066,0.5998 -3.822,1.156 -3.902,1.236 -0.1259,0.1259 0.4458,3.493 0.7168,4.222 0.1375,0.3697 52.79,0.3813 53.02,0.01175 0.3314,-0.5362 0.1835,-16.94 -0.1558,-17.28 -0.245,-0.245 -1.095,-0.3421 -3.863,-0.4415 l -3.549,-0.1275 -0.2182,0.4982 c -0.1201,0.274 -0.7218,2.731 -1.337,5.46 -0.7426,3.293 -1.23,5.043 -1.45,5.203 -0.7884,0.5765 -10.41,1.036 -15.25,0.7277 -5.767,-0.367 -6.637,-0.6879 -7.06,-2.607 -0.2782,-1.261 -0.5243,-18.92 -0.2671,-19.17 0.0981,-0.09515 4.728,-0.02867 10.29,0.1477 5.561,0.1764 10.17,0.2631 10.24,0.1927 0.1684,-0.1683 1.086,-4.838 1.092,-5.561 0.003,-0.3729 -0.2642,-0.8443 -0.7981,-1.406 l -0.8034,-0.8446 -1.631,0.1141 c -3.881,0.2709 -18.13,0.7407 -18.34,0.6051 -0.247,-0.1526 -0.0889,-15.52 0.2096,-20.39 l 0.1336,-2.174 1.14,-0.1732 c 2.086,-0.3171 19.43,-0.06658 19.79,0.2857 0.189,0.189 0.6422,2.257 1.201,5.481 1.073,6.189 0.6062,5.654 5.102,5.839 l 3.103,0.1275 0.1149,-0.4982 c 0.2845,-1.234 2.396,-14.32 2.396,-14.85 0,-0.5786 -1.572,-3.085 -2.128,-3.392 -0.0703,-0.03874 -0.4256,-0.05356 -0.9414,-0.04572 z m 41.86,0.1421 c -2.264,0.01352 -4.947,0.08693 -8.218,0.2181 -4.552,0.1827 -11.01,0.3323 -14.34,0.3323 -5.568,0 -6.081,0.02973 -6.25,0.3626 -0.2612,0.5126 -0.9544,3.97 -0.8224,4.102 0.0601,0.06011 1.341,0.4811 2.846,0.9353 2.783,0.8399 4.496,1.575 4.954,2.127 0.6536,0.7876 0.7562,4.031 0.7374,23.35 -0.0179,18.49 -0.1943,25.47 -0.6544,25.93 -0.1198,0.1198 -1.914,0.7144 -3.987,1.321 -2.073,0.607 -3.827,1.16 -3.896,1.23 -0.1424,0.1424 0.5285,3.561 0.7989,4.071 0.1564,0.295 1.265,0.3486 9.769,0.4727 5.276,0.07699 11.69,0.2635 14.26,0.4144 6.054,0.3563 9.144,0.3853 11.93,0.1129 18.48,-1.807 29.38,-15.59 28.05,-35.49 -1.117,-16.82 -10.14,-26.68 -26.55,-29.04 -2.233,-0.3214 -4.844,-0.4656 -8.618,-0.4432 z m 437.3,0.2513 c -3.584,-0.03144 -16.56,0.3434 -16.66,0.5184 -0.0689,0.1113 -0.2939,1.097 -0.4998,2.191 -0.4398,2.335 -0.6581,2.051 2.372,3.09 2.807,0.9627 5.003,2.115 5.325,2.795 0.6259,1.321 0.7749,6.01 0.7726,24.34 0,18.48 -0.1636,23.71 -0.7475,24.24 -0.1502,0.1355 -1.858,0.6939 -3.796,1.241 -1.937,0.547 -3.641,1.104 -3.785,1.237 -0.269,0.2479 0.1102,2.873 0.5783,4.001 l 0.1935,0.4662 h 25.92 l 0.1935,-0.4662 c 0.3767,-0.9084 0.8438,-3.751 0.6484,-3.946 -0.1055,-0.1056 -1.389,-0.4591 -2.852,-0.7856 -3.765,-0.8399 -6.533,-1.745 -7.064,-2.31 -0.5495,-0.5849 -0.7922,-2.451 -1.08,-8.305 -0.3519,-7.153 -0.713,-28.53 -0.4857,-28.76 0.3498,-0.3498 17.6,21.41 29.47,37.17 3.238,4.299 5.945,7.817 6.016,7.817 0.0712,0 1.991,-0.1915 4.267,-0.4254 2.276,-0.2339 4.218,-0.5055 4.317,-0.6038 0.0987,-0.09838 0.2576,-8.416 0.3533,-18.48 0.2328,-24.49 0.6693,-37.32 1.283,-37.72 0.1411,-0.09137 0.5829,-0.2593 0.9818,-0.3732 4.725,-1.348 6.741,-2.05 6.804,-2.369 0.0596,-0.3002 -0.393,-2.752 -0.7196,-3.899 -0.0969,-0.3404 -0.8961,-0.3626 -13.03,-0.3626 -12.11,0 -12.94,0.02308 -13.11,0.3626 -0.2597,0.519 -0.9464,3.981 -0.8155,4.112 0.0603,0.06021 1.495,0.4669 3.188,0.9037 6.574,1.696 6.474,1.598 6.905,6.744 0.555,6.625 1.116,33.05 0.7014,33.05 -0.2166,0 -1.287,-1.316 -9.191,-11.29 -12.61,-15.92 -20.4,-26.32 -24.23,-32.36 -0.5897,-0.9299 -1.185,-1.731 -1.323,-1.78 -0.064,-0.02286 -0.3841,-0.03553 -0.896,-0.04003 z m -369.1,0.2962 -27.84,0.1069 -0.4784,2.058 c -0.5797,2.495 -0.6916,2.341 2.332,3.218 2.657,0.7705 4.365,1.569 4.902,2.292 0.688,0.9253 0.8236,3.348 0.996,17.82 0.1951,16.38 0.3315,17.98 1.982,23.25 3.072,9.816 9.143,14.72 20.3,16.4 1.732,0.261 9.581,-0.05428 11.46,-0.4602 9.901,-2.144 16.2,-8.152 18.59,-17.72 0.9208,-3.695 1.136,-5.993 1.142,-12.15 0.009,-9.566 0.4194,-27.42 0.6374,-27.68 0.1109,-0.1336 1.983,-0.7439 4.159,-1.357 2.359,-0.6641 4.003,-1.232 4.071,-1.406 0.1098,-0.2793 -0.1671,-1.946 -0.597,-3.594 l -0.2023,-0.7771 h -12.42 c -11.62,0 -12.43,0.02329 -12.6,0.3626 -0.2546,0.4998 -0.9559,3.968 -0.8281,4.096 0.057,0.05699 1.569,0.5207 3.36,1.03 4.086,1.162 5.036,1.573 5.312,2.3 0.8465,2.226 0.775,29.69 -0.0951,36.56 -0.7032,5.55 -1.221,7.11 -2.851,8.585 -4.945,4.475 -14.69,5.513 -20.97,2.234 -4.084,-2.133 -6.529,-6.24 -7.736,-12.99 -0.3298,-1.845 -0.3703,-3.501 -0.3703,-15.13 0,-14.72 0.1646,-19.44 0.6973,-19.97 0.1874,-0.1868 1.972,-0.7964 3.966,-1.355 1.994,-0.5582 3.712,-1.093 3.818,-1.187 0.1878,-0.1679 -0.0755,-2.064 -0.5217,-3.757 z m 262,0.0032 c -7.454,0 -13.6,0.07856 -13.66,0.1748 -0.0596,0.09626 -0.3019,1.045 -0.5387,2.108 -0.5179,2.325 -0.5998,2.208 2.073,2.975 4.956,1.423 5.499,1.802 5.868,4.095 0.5081,3.161 0.2725,46.54 -0.2574,47.4 -0.0823,0.1332 -1.821,0.7156 -3.864,1.294 -2.043,0.5787 -3.835,1.166 -3.982,1.306 -0.2474,0.2347 0.3134,3.666 0.7018,4.295 0.1732,0.2802 27.18,0.223 27.35,-0.05788 0.1733,-0.2804 0.9035,-3.452 0.911,-3.957 0.004,-0.2596 -0.3194,-0.4465 -1.186,-0.686 -6.116,-1.69 -6.814,-2.164 -7.156,-4.863 -0.5832,-4.594 -0.2158,-46.43 0.4132,-47.06 0.1155,-0.1155 1.906,-0.7063 3.98,-1.313 2.073,-0.607 3.826,-1.16 3.895,-1.229 0.1435,-0.1435 -0.5271,-3.571 -0.8058,-4.118 -0.1731,-0.3398 -1.039,-0.3626 -13.74,-0.3626 z m -330.8,6.387 c 7.205,-0.01935 13.23,1.558 16.18,4.37 4.395,4.184 7.215,12.37 7.217,20.95 0.003,11.78 -4.352,21.07 -11.6,24.74 -2.219,1.124 -7.801,1.734 -12.48,1.363 -4.483,-0.3556 -7.097,-1.139 -7.321,-2.196 -0.5643,-2.655 -0.7086,-39.55 -0.1817,-46.45 0.176,-2.306 0.0481,-2.2 3.026,-2.502 1.766,-0.179 3.491,-0.2683 5.154,-0.2728 z m 382.9,0.2874 c 0.374,-0.0024 0.7469,0.004 1.117,0.02059 11.64,0.5172 17.56,9.003 17.56,25.17 0,8.428 -1.961,16.25 -5.168,20.61 -1.155,1.571 -4.177,3.26 -7.369,4.118 -2.216,0.5963 -7.778,0.7486 -9.921,0.2716 -9.344,-2.08 -14.22,-9.771 -14.57,-22.98 -0.2388,-8.971 1.538,-16.68 5.138,-22.3 1.752,-2.736 7.608,-4.863 13.22,-4.902 z m -171.5,1.511 c 0.372,0 10.37,27.3 10.17,27.8 -0.0752,0.1962 -0.4632,0.2675 -1.305,0.24 -0.6589,-0.02153 -4.99,-0.09145 -9.625,-0.1554 -4.635,-0.06398 -8.503,-0.1927 -8.597,-0.2861 -0.3024,-0.3025 8.947,-27.6 9.352,-27.6 z" />
    <path style="paint-order:markers stroke fill" fill="#bb955b"
       d="m 630.5,130.8 c -0.1934,-0.0835 -0.2477,0.062 1.287,-3.447 0.5561,-1.272 1.768,-4.019 2.693,-6.104 l 1.682,-3.792 3.137,-0.021 2.171,4.889 c 1.194,2.689 2.524,5.676 2.955,6.638 0.6073,1.355 0.7711,1.761 0.7283,1.804 -0.0409,0.0408 -0.4358,0.0525 -1.521,0.0445 -0.8062,-0.005 -1.521,-0.0227 -1.588,-0.0373 -0.1117,-0.0243 -0.1728,-0.1474 -0.689,-1.387 -0.3594,-0.8633 -0.5935,-1.368 -0.6405,-1.381 -0.0408,-0.0112 -1.25,-0.0329 -2.687,-0.0481 -1.437,-0.0152 -2.779,-0.0397 -2.983,-0.0544 l -0.37,-0.0266 -0.578,1.435 c -0.5614,1.393 -0.582,1.435 -0.7168,1.459 -0.2836,0.0488 -2.775,0.0756 -2.879,0.0309 z m 9.237,-5.272 c 0,-0.0663 -1.141,-2.826 -1.501,-3.631 -0.3338,-0.7459 -0.4686,-0.9943 -0.5399,-0.9943 -0.0707,0 -0.547,1.026 -1.051,2.266 -0.2535,0.6232 -0.5753,1.407 -0.7151,1.742 -0.1398,0.335 -0.242,0.6211 -0.2272,0.6358 0.0481,0.0481 4.035,0.0303 4.035,-0.0182 z m -19.58,5.387 c -2.227,-0.3181 -4.113,-1.74 -5.16,-3.89 -0.3489,-0.7161 -0.4992,-1.212 -0.5536,-1.826 -0.0977,-1.104 -0.0337,-2.443 0.142,-2.973 0.1613,-0.486 0.5873,-1.324 0.9544,-1.879 0.4466,-0.674 1.234,-1.476 1.854,-1.888 1.129,-0.7496 2.397,-1.135 3.939,-1.196 2.234,-0.0885 4.196,0.66 5.468,2.086 l 0.2658,0.2978 -0.5426,0.5236 c -0.2985,0.288 -0.7238,0.6979 -0.9452,0.9109 l -0.4026,0.3873 -0.4535,-0.379 c -0.9849,-0.8232 -1.752,-1.112 -2.951,-1.112 -1.217,0 -2.267,0.3943 -3.005,1.128 -0.5492,0.5462 -0.8939,1.183 -1.079,1.993 -0.1021,0.4471 -0.0988,1.634 0.005,2.093 0.3073,1.348 1.117,2.326 2.323,2.809 0.594,0.2376 1.106,0.3134 1.94,0.2874 1.224,-0.0382 1.781,-0.2614 2.808,-1.126 0.2219,-0.1868 0.4198,-0.3396 0.4398,-0.3396 0.0201,0 0.4486,0.4126 0.9524,0.9169 l 0.916,0.9169 -0.4309,0.4389 c -0.8534,0.8693 -2.151,1.565 -3.321,1.78 -0.5611,0.1031 -2.548,0.1287 -3.164,0.0408 z m -13.81,-6.775 v -6.705 h 3.098 v 13.41 h -3.098 z m -14.01,0 v -6.705 h 3.098 v 10.87 h 6.659 v 2.543 h -9.758 z m -17.34,2e-4 v -6.751 l 1.098,0.0245 c 0.6041,0.0135 2.676,0.0102 4.334,-0.005 0,0 2.227,-0.0527 2.987,0.2016 0.3451,0.1154 0.8915,0.3142 0.8915,0.3142 0.8967,0.4536 1.221,0.6472 1.555,0.9829 0.3096,0.3107 0.5215,0.7126 0.6278,1.191 0.1104,0.4963 0.0771,1.551 -0.0611,1.929 -0.1382,0.3788 -0.5624,0.9956 -0.988,1.437 -0.1997,0.2069 -0.3632,0.3903 -0.3634,0.4077 0,0.0174 0.2556,0.208 0.5686,0.4237 0.912,0.6286 1.329,1.162 1.545,1.973 0.108,0.4069 0.1073,1.342 -0.002,1.757 -0.2598,0.9948 -0.9546,1.741 -2.135,2.292 -0.6323,0.2955 -1.041,0.38 -2.104,0.435 -0.7502,0.0389 -6.211,0.1398 -7.561,0.1398 h -0.3931 z m 5.272,4.346 c 2.231,-0.0689 2.779,-0.1351 3.21,-0.3877 0.4316,-0.2529 0.6428,-0.6474 0.6466,-1.207 0.003,-0.4079 -0.1119,-0.7337 -0.3624,-1.03 -0.4119,-0.487 -1.231,-0.6113 -4.032,-0.6116 l -1.532,-1.8e-4 -0.0266,0.2428 c -0.0148,0.1335 -0.0389,0.7942 -0.0537,1.468 -0.0148,0.6738 -0.0383,1.304 -0.0521,1.399 l -0.0251,0.1734 0.3856,-6.9e-4 c 0.2121,-3.7e-4 1.041,-0.0211 1.842,-0.0458 z m -0.7862,-5.527 c 2.633,-0.0792 3.424,-0.2521 3.749,-0.82 0.1017,-0.1775 0.1122,-0.2481 0.1122,-0.7508 0,-0.5031 -0.0102,-0.5714 -0.1094,-0.7309 -0.1515,-0.2437 -0.5516,-0.5332 -0.8767,-0.6343 -0.3654,-0.1137 -1.101,-0.1756 -2.737,-0.2303 -0.7503,-0.0251 -1.401,-0.0458 -1.445,-0.0459 -0.0755,0 -0.0809,0.1088 -0.0809,1.645 v 1.645 l 0.2428,-0.0251 c 0.1335,-0.0138 0.6486,-0.0374 1.145,-0.0524 z m -17.49,-6.537 c -0.1197,-0.0177 -0.2318,-0.0465 -0.249,-0.0637 -0.0632,-0.0633 0.1614,-0.3148 1.388,-1.554 l 1.252,-1.265 0.9018,0.0288 c 0.496,0.0159 1.177,0.0418 1.514,0.0576 l 0.6126,0.029 -1.329,1.06 c -1.414,1.128 -2.031,1.571 -2.312,1.66 -0.1973,0.063 -1.449,0.0961 -1.779,0.047 z m 0.5183,14.58 c -0.8716,-0.0649 -1.555,-0.2526 -2.284,-0.6275 -1.319,-0.6776 -2.185,-1.728 -2.615,-3.171 -0.264,-0.8863 -0.3255,-2.095 -0.3259,-6.402 v -3.364 h 3.04 l 0.0315,2.278 c 0.0397,2.868 0.106,5.135 0.1696,5.792 0.0624,0.6447 0.1944,1.26 0.337,1.572 0.3969,0.867 1.594,1.38 2.862,1.227 0.7029,-0.085 1.126,-0.2477 1.579,-0.6082 0.8076,-0.6418 0.877,-1.032 0.9544,-5.359 0.0261,-1.462 0.0521,-3.158 0.0576,-3.769 l 0.0102,-1.11 3.098,-0.0243 -0.0114,1.145 c -0.0326,3.257 -0.1101,7.178 -0.1519,7.689 -0.0538,0.658 -0.1645,1.114 -0.3883,1.598 -0.5631,1.219 -1.631,2.233 -2.87,2.726 -0.7916,0.3147 -2.331,0.4945 -3.491,0.408 z m -21.32,-6.884 v -6.73 l 1.075,0.0266 c 0.5914,0.0146 2.462,-0.0347 3.986,-0.0102 0,0 1.356,-0.003 2.38,0.1434 0.2964,0.0426 1.101,0.2828 1.101,0.2828 1.23,0.4342 1.683,1.122 2.122,1.702 0.8741,1.153 1.147,3.105 0.6231,4.454 -0.4757,1.225 -1.516,2.172 -3.06,2.785 -0.6855,0.272 -1.037,0.3112 -3.542,0.3946 l -1.564,0.0521 -0.0122,1.815 -0.0121,1.815 h -3.097 z m 4.671,0.4867 c 1.46,-0.0821 2.399,-0.226 2.703,-0.4141 0.2391,-0.1478 0.5767,-0.5371 0.7008,-0.8083 0.4958,-1.083 0.1964,-2.421 -0.6522,-2.916 -0.5067,-0.2954 -1.136,-0.3822 -3.711,-0.5115 l -0.6128,-0.0308 v 4.727 l 0.3815,-7e-4 c 0.2098,-3.6e-4 0.7457,-0.0213 1.191,-0.0463 z m -30.89,-0.4686 v -6.712 l 0.9133,0.0307 c 0.5023,0.0169 1.101,0.0433 1.33,0.0587 l 0.4162,0.0282 6.474,7.906 0.0332,-1.751 c 0.0183,-0.9629 0.0467,-2.765 0.0633,-4.005 l 0.0301,-2.254 h 3.087 v 13.41 l -2.659,-0.001 -3.098,-3.796 c -1.704,-2.088 -3.163,-3.871 -3.242,-3.963 l -0.1443,-0.1669 -0.03,2.727 c -0.0164,1.5 -0.043,3.284 -0.0589,3.964 l -0.0291,1.237 h -3.086 z m -13.53,-7.71 c -0.2702,-0.0407 -0.2987,-0.0682 -0.2094,-0.201 0.119,-0.1769 0.7584,-0.9091 1.584,-1.815 l 0.7849,-0.8603 1.156,0.0307 c 0.6359,0.0168 1.353,0.0435 1.595,0.0593 l 0.4385,0.0287 -1.114,0.8853 c -1.633,1.298 -1.946,1.529 -2.327,1.718 l -0.3442,0.171 -0.6732,0.008 c -0.3702,0.004 -0.7711,-0.007 -0.8908,-0.0249 z m -0.0135,14.58 c -1.453,-0.3828 -2.098,-0.6427 -2.913,-1.175 -1.542,-1.006 -2.551,-2.484 -2.945,-4.314 -0.1363,-0.6328 -0.1483,-2.014 -0.023,-2.638 0.3006,-1.496 1.076,-2.858 2.17,-3.81 0.4296,-0.3741 1.241,-0.9004 1.8,-1.167 0.9154,-0.4372 1.726,-0.5782 3.322,-0.5782 0.9649,2e-5 1.144,0.0121 1.593,0.1084 1.469,0.3144 2.621,0.934 3.661,1.969 0.9161,0.9119 1.384,1.733 1.703,2.992 0.1615,0.6367 0.219,1.129 0.2182,1.867 -0.002,1.8 -0.5728,3.242 -1.779,4.494 -0.7314,0.7594 -1.539,1.324 -2.464,1.722 -0.8792,0.3786 -1.65,0.5072 -3.209,0.5352 -0.5723,0.0102 -1.082,0.008 -1.133,-0.005 z m 1.95,-2.749 c 0.5686,-0.0634 1.071,-0.21 1.45,-0.4227 1.345,-0.7564 2.119,-2.277 2.018,-3.967 -0.1128,-1.891 -1.196,-3.267 -2.94,-3.735 -0.3883,-0.1043 -0.5332,-0.1188 -1.182,-0.1186 -0.8541,0 -1.213,0.0744 -1.862,0.3843 -0.4858,0.2322 -0.7152,0.391 -1.071,0.7412 -0.7788,0.7669 -1.068,1.568 -1.068,2.962 0,1.106 0.1168,1.693 0.4497,2.261 0.2258,0.3852 0.957,1.149 1.349,1.41 0.4627,0.3076 0.7035,0.3872 1.53,0.5056 0.2543,0.0364 0.9065,0.0264 1.326,-0.0204 z m -15.89,-4.113 v -6.705 h 2.913 v 13.41 h -2.913 z m -11.51,6.793 c -1.44,-0.1933 -2.81,-0.8774 -3.873,-1.935 -0.5063,-0.5035 -0.8655,-0.992 -1.199,-1.631 -1.022,-1.956 -1.038,-4.393 -0.0439,-6.375 0.4581,-0.9129 1.357,-1.935 2.187,-2.486 2.005,-1.333 4.839,-1.638 7.106,-0.7651 0.488,0.1878 1.158,0.5579 1.671,0.9222 0.3333,0.2371 1.035,0.8797 1.035,0.948 0,0.0321 -1.882,1.723 -1.943,1.745 -0.0211,0.008 -0.251,-0.1441 -0.511,-0.3376 -1.089,-0.8108 -2.27,-1.167 -3.438,-1.039 -1.471,0.1619 -2.656,0.9864 -3.287,2.287 -0.2834,0.5845 -0.3222,0.8133 -0.3211,1.896 0.002,1.086 0.0502,1.348 0.3659,1.959 0.4144,0.8019 0.9876,1.386 1.712,1.744 0.6928,0.3425 1.009,0.4055 2.035,0.406 0.8233,3.6e-4 0.9043,-0.007 1.287,-0.1243 0.6255,-0.1912 0.9773,-0.394 1.713,-0.9875 0.3109,-0.2507 0.3751,-0.2851 0.4393,-0.2352 0.0414,0.0322 0.3457,0.29 0.6764,0.573 0.7079,0.6059 1.225,1.114 1.225,1.203 0,0.1018 -0.5026,0.5684 -0.9751,0.9051 -0.9537,0.6797 -1.896,1.124 -2.678,1.262 -0.5243,0.0928 -2.649,0.1354 -3.183,0.0638 z m -23.05,-0.1194 c -0.1685,-0.0119 -0.2772,-0.0422 -0.2923,-0.0815 -0.0372,-0.0971 1.117,-2.755 4.211,-9.697 l 1.559,-3.499 0.5627,-0.0294 c 0.3095,-0.016 1.016,-0.0337 1.57,-0.0392 l 1.007,-0.0102 1.46,3.26 c 3.632,8.11 4.451,9.967 4.415,10 -0.0951,0.0951 -0.4877,0.1221 -1.791,0.1231 l -1.394,0.001 -0.1212,-0.289 c -0.0666,-0.159 -0.338,-0.8197 -0.6031,-1.468 l -0.4818,-1.179 h -0.223 c -1.163,0 -5.842,0.0874 -5.878,0.1097 -0.0255,0.016 -0.2588,0.5389 -0.5182,1.162 -0.2594,0.6231 -0.5136,1.231 -0.565,1.352 -0.0779,0.1823 -0.1174,0.2223 -0.2384,0.241 -0.2011,0.0311 -2.351,0.0634 -2.679,0.0402 z m 7.961,-5.27 c 1.106,-0.0303 1.118,-0.0315 1.088,-0.1272 -0.0626,-0.202 -1.984,-4.79 -2.006,-4.79 -0.025,0 -1.978,4.689 -2.02,4.85 -0.0253,0.0971 -0.0193,0.0977 0.8972,0.0977 0.5075,0 1.426,-0.0137 2.041,-0.0306 z m -18,5.44 c -1.93,-0.221 -3.4,-0.977 -4.611,-2.37 -0.9941,-1.144 -1.434,-2.203 -1.572,-3.779 -0.1784,-2.042 0.3658,-3.822 1.574,-5.147 1.456,-1.598 3.054,-2.335 5.251,-2.422 1.82,-0.0723 3.244,0.3394 4.842,1.4 0.6073,0.4028 0.8226,0.6153 0.8226,0.8115 0,0.1979 -0.2454,0.5032 -1.031,1.283 l -0.7639,0.7583 -0.3626,-0.3443 c -0.4317,-0.4099 -0.6877,-0.5909 -1.137,-0.804 -1.002,-0.4748 -2.348,-0.5182 -3.471,-0.1118 -1.26,0.456 -2.075,1.352 -2.42,2.659 -0.1038,0.3943 -0.1219,0.5624 -0.1264,1.177 -0.007,0.9288 0.1166,1.508 0.4648,2.179 0.7082,1.366 2.473,2.229 4.164,2.037 1.023,-0.1163 1.75,-0.4581 2.555,-1.202 l 0.3462,-0.3197 0.7636,0.7249 c 0.42,0.3987 0.8676,0.8213 0.9948,0.9391 l 0.2312,0.2142 -0.185,0.1915 c -0.1017,0.1053 -0.3619,0.3322 -0.5781,0.5042 -1.119,0.8902 -2.035,1.326 -3.223,1.533 -0.6242,0.1087 -1.946,0.1547 -2.529,0.0879 z m -18.06,0.003 c -0.805,-0.0794 -1.266,-0.2013 -1.926,-0.5092 -1.137,-0.53 -1.968,-1.326 -2.49,-2.382 -0.5842,-1.183 -0.6699,-2.122 -0.6703,-7.341 v -3.318 h 3.041 l 0.0286,1.653 c 0.111,6.426 0.1628,7.203 0.5318,7.992 0.2571,0.5494 0.861,0.9908 1.574,1.15 0.4382,0.098 1.257,0.1011 1.715,0.006 0.7434,-0.1538 1.442,-0.6441 1.683,-1.181 0.2836,-0.6319 0.3376,-1.225 0.3983,-4.372 0.0269,-1.399 0.0612,-3.152 0.0758,-3.896 l 0.0266,-1.353 h 3.092 l -0.0277,1.884 c -0.0615,4.187 -0.1163,6.581 -0.1618,7.064 -0.0626,0.6627 -0.1793,1.079 -0.459,1.636 -0.6624,1.32 -1.836,2.31 -3.212,2.708 -0.7997,0.2318 -2.282,0.3507 -3.218,0.2583 z m -23.2,-6.847 v -6.716 l 3.133,0.0249 c 3.271,0.026 4.079,0.063 4.837,0.2212 1.736,0.3624 3.333,1.37 4.271,2.696 0.4991,0.7048 0.9182,1.665 1.032,2.365 0.0691,0.4248 0.0702,2.455 0.002,2.844 -0.2882,1.632 -1.621,3.399 -3.253,4.314 -0.8447,0.4736 -1.853,0.7783 -2.877,0.8691 -0.3477,0.0309 -1.981,0.0627 -3.873,0.0756 l -3.272,0.0221 z m 6.23,4.048 c 0.6756,-0.0747 1.311,-0.2149 1.784,-0.3936 0.3757,-0.142 0.9113,-0.5123 1.185,-0.8193 0.6678,-0.7492 1.067,-2.215 0.9319,-3.419 -0.067,-0.5958 -0.1832,-0.9851 -0.4465,-1.497 -0.6522,-1.267 -1.661,-1.795 -3.788,-1.985 -0.5502,-0.049 -2.265,-0.1424 -2.615,-0.1424 h -0.1824 v 4.201 c 0,2.31 0.009,4.209 0.0196,4.22 0.0364,0.0364 2.447,-0.0916 3.112,-0.1652 z m -21.72,-4.047 v -6.705 h 10.13 v 2.543 h -7.029 v 2.821 h 6.104 v 2.543 h -6.104 v 2.96 h 7.214 v 2.543 h -10.31 z m -23.63,0.0262 v -6.732 h 10.13 v 2.543 h -7.029 v 2.821 h 6.289 v 2.543 h -6.289 v 2.948 l 0.7284,0.0288 c 0.4006,0.0157 2.045,0.0421 3.653,0.0585 l 2.925,0.0301 v 2.335 l -0.474,0.0278 c -0.2607,0.0153 -2.565,0.0402 -5.122,0.0553 -2.556,0.015 -4.684,0.0377 -4.728,0.0502 -0.0768,0.0216 -0.0809,-0.32 -0.0809,-6.709 z m -16.21,6.675 c -1.375,-0.0375 -2.043,-0.1023 -2.15,-0.2084 -0.0611,-0.0603 -0.0683,-0.7139 -0.0603,-5.397 0.005,-2.93 0.023,-5.862 0.04,-6.514 l 0.0309,-1.186 1.255,-0.0332 c 1.974,-0.0523 5.593,-0.003 6.186,0.0837 1.001,0.1468 1.798,0.3959 2.63,0.8222 1.126,0.5771 2.338,1.814 2.821,2.878 0.5998,1.323 0.7308,3.297 0.3151,4.748 -0.7406,2.586 -3.067,4.435 -5.932,4.714 -0.4686,0.0457 -1.244,0.073 -3.146,0.1109 -0.407,0.008 -1.302,-5.5e-4 -1.989,-0.0194 z m 1.989,-2.516 c 3.134,-0.1167 4.113,-0.3646 5.02,-1.27 0.4656,-0.4652 0.7105,-0.9091 0.9083,-1.646 0.1105,-0.4117 0.1236,-0.5427 0.125,-1.246 0.002,-0.9526 -0.0856,-1.374 -0.4317,-2.081 -0.4485,-0.9167 -1.184,-1.5 -2.243,-1.777 -0.7048,-0.1846 -1.432,-0.2553 -3.644,-0.3542 l -0.6821,-0.0305 v 8.476 l 0.104,-0.0216 c 0.0572,-0.0118 0.437,-0.0339 0.844,-0.0492 z m -30.87,2.48 c -0.1443,-0.0166 -0.273,-0.0408 -0.286,-0.0538 -0.0408,-0.0408 1.131,-2.718 4.204,-9.606 l 1.614,-3.619 3.193,3.1e-4 1.27,2.832 c 1.952,4.354 3.559,7.969 4.1,9.222 0.3731,0.8642 0.4762,1.145 0.4306,1.173 -0.1098,0.0679 -0.7932,0.0956 -2.004,0.0812 l -1.199,-0.0142 -1.17,-2.913 h -0.2282 c -1.197,0 -5.801,0.0875 -5.839,0.1109 -0.027,0.0168 -0.3089,0.6323 -0.6263,1.368 -0.3891,0.9017 -0.6046,1.348 -0.6613,1.368 -0.1202,0.0438 -2.483,0.0857 -2.797,0.0497 z m 8.397,-5.279 c 0.3076,-3.7e-4 0.5892,-0.0196 0.6258,-0.0427 0.0779,-0.0493 0.0806,-0.0414 -0.7387,-2.038 -0.8405,-2.048 -1.114,-2.682 -1.154,-2.682 -0.0877,0 -1.943,4.438 -1.943,4.648 0,0.0379 0.0364,0.0718 0.0809,0.0753 0.4778,0.0377 1.708,0.0718 2.088,0.0576 0.2646,-0.0102 0.7329,-0.0181 1.04,-0.0186 z m -15.83,-9.102 c -0.1125,-0.0166 -0.2114,-0.0511 -0.2197,-0.0767 -0.0204,-0.0619 0.4444,-0.5777 1.62,-1.798 l 0.9744,-1.011 1.343,0.0244 c 1.296,0.0235 1.583,0.0502 1.606,0.1488 0.0311,0.1331 -2.648,2.256 -3.194,2.531 l -0.3876,0.1953 -0.7685,0.008 c -0.4227,0.004 -0.8605,-0.005 -0.973,-0.0221 z m -0.0961,7.716 v -6.705 h 3.098 v 13.41 h -3.098 z m -122.7,6.816 c -1.351,-0.1621 -2.467,-0.4626 -3.332,-0.8966 -0.4441,-0.223 -0.9228,-0.5134 -0.9228,-0.5599 0,-0.0631 0.6299,-1.458 0.8227,-1.821 0.1696,-0.32 0.1737,-0.3237 0.3565,-0.3202 0.1272,0.002 0.3655,0.0913 0.763,0.285 0.9606,0.4678 2.024,0.7476 3.203,0.8423 1.252,0.1007 2.069,-0.0977 2.506,-0.609 0.5112,-0.5973 0.3072,-1.377 -0.4605,-1.761 -0.2919,-0.1457 -1.372,-0.4867 -2.89,-0.912 -1.837,-0.515 -2.393,-0.7656 -2.958,-1.333 -0.5282,-0.5308 -0.8299,-0.9929 -0.956,-1.464 -0.0833,-0.3113 -0.0797,-1.256 0.006,-1.75 0.2158,-1.238 0.954,-2.137 2.312,-2.816 0.8458,-0.423 1.298,-0.4972 3.027,-0.4972 1.217,0 2.123,0.0588 2.615,0.1698 0.6616,0.1493 1.901,0.6814 2.061,0.8849 0.1289,0.1639 0.1014,0.3274 -0.1719,1.02 -0.3031,0.7679 -0.5091,1.163 -0.6062,1.162 -0.1349,-0.002 -0.6308,-0.1282 -1.273,-0.3262 -1.125,-0.3468 -2.096,-0.4926 -2.946,-0.4424 -0.7953,0.0469 -1.112,0.1641 -1.502,0.5553 -0.33,0.331 -0.456,0.6078 -0.4314,0.9479 0.0242,0.3346 0.145,0.5127 0.5062,0.7461 0.3973,0.2568 0.7103,0.3684 2.461,0.877 1.895,0.5507 2.286,0.6839 2.809,0.958 1.047,0.5484 1.635,1.229 1.762,2.037 0.0685,0.4375 0.0208,1.854 -0.0743,2.209 -0.1225,0.4572 -0.3798,0.9284 -0.6676,1.223 -0.4211,0.4303 -1.186,0.8935 -2.095,1.269 -0.672,0.2776 -0.9257,0.312 -2.42,0.3284 -0.7376,0.008 -1.414,0.006 -1.503,-0.005 z m 11.74,-6.789 v -6.732 h 10.13 v 2.543 h -7.031 l 0.0122,1.399 0.0121,1.399 3.075,0.0531 c 1.691,0.0292 3.08,0.0552 3.087,0.0577 0.006,0.003 0.0115,0.5325 0.0115,1.178 v 1.173 l -2.231,0.0302 c -1.227,0.0165 -2.621,0.0431 -3.098,0.0589 l -0.8671,0.029 v 2.935 l 0.7284,0.0288 c 0.4006,0.0157 2.045,0.0421 3.653,0.0585 l 2.925,0.03 v 2.335 l -0.4278,0.0277 c -0.2353,0.0152 -2.54,0.0401 -5.122,0.0552 -2.582,0.0151 -4.73,0.0378 -4.775,0.0504 -0.0768,0.0217 -0.0809,-0.3199 -0.0809,-6.709 z m 94.34,-0.0507 v -6.73 l 1.052,0.0258 c 0.5786,0.0142 2.293,0.0463 3.811,0.0712 l 2.759,0.0454 0.2614,0.1156 c 0.568,0.2512 1.498,0.736 1.802,0.94 0.5855,0.3918 1.114,0.986 1.425,1.602 0.5739,1.138 0.5838,2.887 0.0232,4.101 -0.3444,0.7456 -0.735,1.217 -1.455,1.758 -0.4786,0.3594 -0.6362,0.5438 -0.5966,0.698 0.0144,0.0561 0.3166,0.5287 0.6716,1.05 0.355,0.5214 0.9527,1.4 1.328,1.953 0.3755,0.5526 0.6666,1.021 0.6467,1.04 -0.045,0.0446 -3.058,0.0231 -3.227,-0.023 -0.0968,-0.0263 -0.3771,-0.3966 -1.286,-1.699 -0.6392,-0.9156 -1.201,-1.698 -1.249,-1.739 -0.0714,-0.0615 -0.273,-0.0795 -1.165,-0.1052 -0.5931,-0.0171 -1.219,-0.0437 -1.391,-0.0589 l -0.3122,-0.0279 v 3.712 h -3.098 z m 6.081,0.4186 c 0.9046,-0.1391 1.484,-0.4149 1.828,-0.8694 0.5205,-0.6887 0.5112,-1.976 -0.0199,-2.75 -0.469,-0.6837 -1.003,-0.8066 -4.178,-0.9617 l -0.6127,-0.03 v 4.74 l 1.26,-0.029 c 0.7518,-0.0173 1.447,-0.0576 1.723,-0.1001 z m -24.81,6.271 c -0.2344,-0.0497 -0.2843,-0.0909 -0.2495,-0.2066 0.1011,-0.3356 1.551,-3.653 3.337,-7.638 0.5588,-1.246 1.335,-2.979 1.726,-3.85 l 0.71,-1.584 1.613,0.0121 1.613,0.0122 1.085,2.428 c 3.429,7.671 4.795,10.78 4.759,10.81 -0.0755,0.0754 -3.207,0.033 -3.285,-0.0445 -0.0167,-0.0166 -0.2869,-0.6617 -0.6005,-1.433 l -0.5702,-1.403 h -0.2009 c -0.9213,0 -5.766,0.0804 -5.824,0.0967 -0.0469,0.0132 -0.282,0.5204 -0.6404,1.381 -0.5194,1.248 -0.5765,1.363 -0.689,1.384 -0.2142,0.0409 -2.613,0.0705 -2.783,0.0343 z m 9.112,-5.28 c 0,-0.0651 -1.235,-3.059 -1.551,-3.761 -0.1391,-0.3086 -0.2959,-0.6316 -0.3485,-0.7179 -0.0816,-0.1341 -0.1049,-0.1475 -0.16,-0.0924 -0.1785,0.1784 -1.825,4.137 -1.825,4.388 0,0.0487 0.0453,0.1011 0.104,0.1201 0.2678,0.0868 3.78,0.1454 3.78,0.0631 z m -18.08,-0.0853 v -5.462 h -4.254 v -2.543 h 11.79 v 2.543 h -4.255 l -3.6e-4,0.7977 c -10e-4,2.956 -0.1023,9.955 -0.1444,9.981 -0.0264,0.0164 -0.6343,0.0437 -1.351,0.0606 -0.7164,0.017 -1.412,0.0431 -1.545,0.0579 l -0.2428,0.0272 z m -17.39,5.36 c -0.7581,-0.0392 -0.9083,-0.0682 -0.9724,-0.1878 -0.0519,-0.0969 -0.0625,-8.354 -0.0144,-11.24 l 0.0305,-1.832 1.831,-0.029 c 1.007,-0.016 3.303,-0.0421 5.103,-0.0583 l 3.272,-0.0296 v 2.556 h -7.031 l 0.0122,1.399 0.0122,1.399 3.075,0.0531 c 1.691,0.0292 3.08,0.0552 3.087,0.0577 0.006,0.003 0.0115,0.5325 0.0115,1.178 v 1.173 l -2.231,0.0302 c -1.227,0.0166 -2.621,0.0431 -3.098,0.0589 l -0.8671,0.029 v 2.935 l 0.7284,0.0287 c 0.4006,0.0157 2.045,0.0421 3.653,0.0585 l 2.925,0.03 v 2.336 l -0.5202,0.0265 c -0.8397,0.0429 -8.273,0.0671 -9.006,0.0294 z m -17.24,-0.003 c -0.3947,-0.078 -0.365,0.0305 -0.401,-1.462 -0.0341,-1.414 10e-4,-9.914 0.0465,-11.1 l 0.0266,-0.7053 h 7.704 l 0.6978,0.3214 c 0.8272,0.381 1.219,0.6041 1.704,0.9705 1.211,0.9147 1.807,2.864 1.399,4.573 -0.2713,1.136 -0.8112,1.966 -1.693,2.603 -0.4355,0.3144 -0.6645,0.5568 -0.6645,0.7033 0,0.0568 0.2902,0.5295 0.6448,1.05 0.3546,0.521 0.9618,1.415 1.349,1.988 l 0.7046,1.04 -0.1817,0.0348 c -0.2771,0.0531 -3.046,-0.0123 -3.162,-0.0746 -0.0531,-0.0287 -0.6446,-0.8326 -1.315,-1.786 l -1.218,-1.734 -2.788,-0.0244 v 3.655 l -1.33,-0.005 c -0.7313,-0.003 -1.417,-0.0223 -1.524,-0.0434 z m 5.813,-6.26 c 1.334,-0.209 1.981,-0.6982 2.178,-1.645 0.0708,-0.3404 0.028,-1.113 -0.0792,-1.434 -0.19,-0.5685 -0.6444,-1.036 -1.145,-1.178 -0.5113,-0.1447 -1.44,-0.2367 -3.301,-0.3271 l -0.6127,-0.0298 v 4.74 l 1.26,-0.029 c 0.7376,-0.017 1.442,-0.0574 1.699,-0.0978 z m -18.42,6.148 c -1.844,-0.5644 -3.556,-2.03 -4.335,-3.711 -0.4032,-0.8706 -0.4715,-1.279 -0.473,-2.832 -0.001,-1.549 0.0652,-1.957 0.4554,-2.782 0.689,-1.456 1.593,-2.389 3.094,-3.191 1.346,-0.719 1.358,-0.7216 3.478,-0.7202 1.962,0.002 2.206,0.0416 3.145,0.5186 0.5596,0.2845 1.309,0.7571 1.665,1.05 l 0.6474,0.5331 -0.6474,0.6745 c -1.026,1.069 -1.147,1.091 -2.237,0.4129 -0.8831,-0.549 -1.097,-0.6012 -2.463,-0.6012 -1.385,0 -1.56,0.0443 -2.357,0.5975 -1.167,0.8105 -1.715,1.952 -1.708,3.563 0.005,1.442 0.4659,2.465 1.488,3.308 1.376,1.134 3.676,1.137 5.237,0.006 0.8577,-0.6213 1.021,-0.5841 2.028,0.4627 l 0.6354,0.6605 -0.4424,0.4708 c -0.2433,0.259 -1.019,0.7594 -1.724,1.112 -1.219,0.61 -1.372,0.6404 -3.153,0.6252 -1.029,-0.009 -2.079,-0.0796 -2.334,-0.1574 z" />
  </g>
</svg>
